<svg xmlns="http://www.w3.org/2000/svg" width="512" height="512" viewBox="0 0 512 512">
  <rect width="512" height="512" rx="104" fill="#2e9e6b"/>
  <g transform="translate(256 256) scale(1.16) translate(-212.6 -740.1)">
    <path d="M361.34,739.95c0-37.92-14.27-74.03-40.19-101.68-1.87-1.99-3.79-3.93-5.75-5.8v-.38h-.4c-25.06-23.81-57.4-38.12-92.01-40.51h-4.43s0,66.83,0,66.83v63.57c.03,12.66.07,35.23-5.96,48.35-6.03-13.12-5.99-35.69-5.96-48.35v-2.43s0-55.62,0-55.62v-72.36h-4.43c-34.6,2.4-66.95,16.71-92.01,40.52h-.4v.38c-1.96,1.88-3.89,3.81-5.75,5.8-25.91,27.65-40.19,63.77-40.19,101.68v4.11h38.69l-10.61,9.58h-27.45c.25,2.76.58,5.51.99,8.23h17.36l-14.76,13.33c.73,2.99,1.56,5.94,2.47,8.86l19.56-17.67v18.01c0,1.87-1.95,6.38-13,16.89,1.19,2.63,2.47,5.21,3.81,7.75,9.85-9.07,17.42-17.83,17.42-24.65v-25.44l16.48-14.89h11.67c1.02,0,2.04-.04,3.06-.08-4.19,3.17-8.61,7-13.2,11.68-.76-.21-1.55-.33-2.37-.33-4.93,0-8.93,4-8.93,8.93s4,8.93,8.93,8.93,8.93-4,8.93-8.93c0-1.05-.19-2.05-.52-2.99,12.31-12.47,23.24-18.4,31.78-22.13,1.84-.68,3.63-1.44,5.41-2.25.24-.1.48-.19.72-.29v-.03c15.95-7.45,29.07-20.01,37.23-35.56-3.3,15.99-15.47,32.13-34.51,45.36-13.37,9.3-26.7,19.43-37.07,27.6h-.49v.38c-7.89,6.22-14.02,11.26-17.08,13.85-6.19,5.24-6.93,10.91-7.53,15.47-.26,1.98-.48,3.69-1.11,5.15-2.56,5.92-5.78,10.97-9.51,15.54,1.62,2.34,3.29,4.63,5.04,6.86,4.71-5.48,8.78-11.65,12.02-19.14,1.09-2.51,1.41-4.97,1.72-7.35.52-3.95.93-7.08,4.69-10.26,2.19-1.86,6.34-5.28,11.76-9.61v20.48c-9.6,9.12-15.57,17.82-17.81,26.03-.94,3.46-1.72,7.36-2.36,11.42,2.36,2.46,4.8,4.84,7.32,7.13.72-5.89,1.68-11.63,2.98-16.39,1.39-5.09,4.71-10.6,9.87-16.42v43.26c2.68,1.94,5.42,3.8,8.23,5.56v-57c3.84-3.43,8.24-6.95,13.2-10.54v11.67c0,5.01,1.87,9.8,5.26,13.49l4.97,5.4c.21.22.4.46.58.7-.18.17-.34.34-.47.46-.47.47-1.03.96-1.62,1.47-4.96,4.32-11.74,10.23-11.74,38.5v1.7c2.69,1.41,5.44,2.74,8.23,3.99v-5.69c0-22.89,4.31-28.17,8.11-31.59v40.63c2.7,1.02,5.45,1.96,8.23,2.82v-45.08c0-1.87-.26-3.7-.76-5.46,2.42-2.36,5.48-5.35,8.9-8.73,1.63,5.51,4.61,10.55,8.78,14.73l2.4,2.4c-4.7,5.45-7.28,12.32-7.28,19.6v25.76c2.71.6,5.46,1.12,8.23,1.57v-27.32c0-5.07,1.72-9.88,4.89-13.76l.1.1c5.03,5.03,7.81,11.72,7.81,18.84v23.66c2.72.2,5.47.33,8.23.38v-24.04c0-9.32-3.63-18.07-10.21-24.66l-.18-.18,13.3-13.3,13.3,13.3-.18.18c-6.59,6.59-10.21,15.34-10.21,24.66v24.04c2.76-.05,5.5-.18,8.23-.38v-23.66c0-7.12,2.77-13.81,7.81-18.84l.1-.1c3.16,3.88,4.89,8.69,4.89,13.76v27.32c2.77-.45,5.51-.97,8.23-1.57v-25.76c0-7.27-2.57-14.15-7.28-19.6l2.4-2.4c4.17-4.17,7.15-9.22,8.78-14.73,3.43,3.38,6.49,6.37,8.9,8.73-.5,1.76-.76,3.6-.76,5.46v45.08c2.78-.87,5.52-1.8,8.23-2.83v-40.62c3.81,3.42,8.11,8.7,8.11,31.59v5.69c2.79-1.25,5.53-2.58,8.23-3.99v-1.7c0-28.27-6.79-34.18-11.74-38.5-.59-.52-1.15-1-1.62-1.47-.13-.13-.29-.29-.47-.46.19-.24.38-.47.58-.7l4.97-5.4c3.39-3.69,5.26-8.48,5.26-13.49v-11.67c4.96,3.59,9.36,7.11,13.2,10.54v57c2.81-1.76,5.55-3.62,8.23-5.56v-43.26c5.16,5.82,8.48,11.33,9.87,16.42,1.3,4.76,2.26,10.49,2.98,16.39,2.52-2.29,4.96-4.67,7.32-7.13-.64-4.07-1.42-7.96-2.36-11.42-2.24-8.21-8.21-16.91-17.81-26.03v-20.48c5.42,4.34,9.57,7.76,11.76,9.61,3.76,3.18,4.17,6.31,4.69,10.26.31,2.38.63,4.83,1.72,7.35,3.24,7.49,7.31,13.66,12.02,19.14,1.74-2.24,3.42-4.53,5.03-6.86-3.72-4.57-6.95-9.62-9.51-15.54-.63-1.46-.85-3.17-1.11-5.15-.6-4.56-1.34-10.23-7.53-15.47-3.06-2.59-9.19-7.63-17.08-13.85v-.38h-.49c-10.38-8.17-23.7-18.31-37.07-27.6-19.04-13.23-31.21-29.37-34.51-45.36,8.16,15.56,21.27,28.11,37.24,35.56v.03c.22.09.47.19.71.29,1.77.81,3.57,1.57,5.41,2.25,8.54,3.73,19.46,9.66,31.78,22.13-.33.94-.52,1.94-.52,2.99,0,4.93,4,8.93,8.93,8.93s8.93-4,8.93-8.93-4-8.93-8.93-8.93c-.82,0-1.62.12-2.37.33-4.6-4.68-9.01-8.51-13.2-11.68,1.02.04,2.03.08,3.06.08h11.67l16.48,14.89v25.44c0,6.82,7.57,15.57,17.42,24.65,1.34-2.54,2.61-5.13,3.81-7.76-11.05-10.51-13-15.02-13-16.89v-18.01l19.56,17.67c.91-2.92,1.73-5.87,2.46-8.86l-14.75-13.33h17.37c.4-2.72.73-5.46.98-8.23h-27.45l-10.61-9.58h38.69v-4.11ZM340.04,680.67h-.36l-.23-.12-.06.12h-18.31l12.1-12.91c2.51,4.19,4.81,8.5,6.86,12.91ZM315.4,644.16c4.84,5.19,9.24,10.69,13.19,16.46l-13.19,14.08v-30.54ZM335.05,688.89l-6.45,12.23c-4.31,6.05-11.3,9.66-18.74,9.66h-17l20.51-21.89h21.68ZM296.28,627.05c3.76,2.8,7.39,5.8,10.89,8.98v47.45l-25.29,27c-6.35-.73-12.29-2.77-17.57-5.86l19.87-22.52c7.8-8.85,12.1-20.21,12.1-32.01v-23.04ZM277.17,615.11c3.72,1.93,7.35,4.02,10.89,6.28v28.71c0,9.79-3.57,19.22-10.04,26.56l-.84.95v-62.5ZM258.64,607.15c3.49,1.21,6.93,2.55,10.31,4.03v43.18c-6.57-6.87-10.31-16.11-10.31-25.65v-21.56ZM241.84,602.48c2.88.61,5.74,1.31,8.57,2.1v24.13c0,12.47,5.22,24.52,14.32,33.05l4.21,3.95v21.22l-11.36,12.88c-9.63-8.3-15.74-20.57-15.74-34.24v-63.09ZM156.25,611.18c3.38-1.48,6.82-2.82,10.31-4.03v21.56c0,9.54-3.73,18.78-10.31,25.65v-43.18ZM160.47,661.76c9.1-8.53,14.32-20.58,14.32-33.05v-24.13c2.83-.79,5.69-1.49,8.57-2.1v63.09c0,13.68-6.11,25.94-15.74,34.24l-11.36-12.88v-21.22l4.21-3.95ZM137.14,621.38c3.54-2.26,7.17-4.35,10.89-6.28v62.5l-.84-.95c-6.48-7.34-10.04-16.77-10.04-26.56v-28.71ZM118.03,636.03c3.49-3.18,7.12-6.19,10.89-8.98v23.04c0,11.8,4.3,23.16,12.1,32.01l19.87,22.52c-5.27,3.08-11.22,5.13-17.57,5.86l-25.29-27v-47.45ZM111.83,688.89l20.51,21.89h-17c-7.44,0-14.43-3.61-18.74-9.66l-6.45-12.23h21.68ZM109.8,644.16v30.54l-13.19-14.08c3.95-5.77,8.36-11.27,13.19-16.46ZM92.03,667.76l12.1,12.91h-18.31l-.06-.12-.23.12h-.36c2.06-4.41,4.35-8.72,6.86-12.91ZM72.15,735.83c.18-6.11.75-12.16,1.7-18.12l18.12,18.12h-19.82ZM156.38,729.3c-1.66.66-3.44,1.39-5.33,2.21-7.67,2.79-15.93,4.32-24.55,4.32h-22.89l-27.85-27.85c1.44-6.2,3.3-12.29,5.57-18.22l8.39,15.87c5.84,8.38,15.42,13.38,25.63,13.38h22.81c.62,0,1.24-.03,1.86-.05l1-.03c28.14-1.49,50.58-24.85,50.58-53.36v-64.57c2.27-.34,4.54-.63,6.83-.86v63.78c0,28.99-17.26,54.01-42.03,65.38ZM133.66,798.16v-19.79c9.88-7.72,22.02-16.9,34.03-25.25,1.81-1.26,4-2.86,6.4-4.77v21.33c-3.6,3.21-7.6,6.28-11.9,8.87-11.18,6.71-20.69,13.25-28.52,19.61ZM163.58,823.91c-.14-.17-.28-.34-.43-.51l-4.97-5.4c-1.99-2.17-3.09-4.98-3.09-7.92v-17.35c3.56-2.35,7.33-4.73,11.32-7.13,2.69-1.61,5.24-3.38,7.67-5.25v26.13c2.93-2.93,5.67-5.7,8.23-8.32v-24.87c5.52-5.26,10.02-10.62,13.25-14.86-.69-4.02-1.16-8.14-1.48-12.2-1.09,1.71-5.3,8.1-11.77,15.25v-20.33c5.68-5.44,11.54-12.2,16.09-20.07v.86c-.03,15.7-.08,41.86,9.09,56.17-3.09,3.85-7.41,8.67-12.25,13.82h-.44v.47c-10.72,11.38-23.75,24.2-31.24,31.52ZM193.49,833.95l-2.33-2.33c-4.32-4.32-6.96-9.86-7.62-15.84,3.96-3.96,8.12-8.18,12.15-12.36,1.29,5.28,4,10.13,7.94,14.07l3.16,3.16-13.3,13.3ZM212.6,814.84l-3.16-3.16c-4.12-4.12-6.4-9.61-6.4-15.44v-.59c3.61-3.89,6.89-7.57,9.56-10.78,2.67,3.22,5.95,6.9,9.56,10.78v.59c0,5.83-2.27,11.31-6.4,15.44l-3.16,3.16ZM234.04,831.62l-2.33,2.33-13.3-13.3,3.16-3.16c3.94-3.94,6.65-8.79,7.94-14.07,4.03,4.18,8.18,8.39,12.15,12.36-.67,5.98-3.31,11.52-7.62,15.84ZM251.11,748.35c2.4,1.91,4.58,3.51,6.4,4.77,12.01,8.35,24.15,17.53,34.03,25.25v19.79c-7.83-6.36-17.34-12.9-28.52-19.61-4.31-2.58-8.3-5.66-11.9-8.87v-21.33ZM242.88,741.16v20.33c-6.47-7.15-10.68-13.54-11.77-15.25-.32,4.06-.79,8.18-1.48,12.2,3.24,4.25,7.73,9.6,13.25,14.86v24.87c2.55,2.61,5.3,5.38,8.23,8.32v-26.13c2.43,1.86,4.99,3.63,7.67,5.25,4,2.4,7.77,4.78,11.32,7.13v17.35c0,2.94-1.1,5.76-3.09,7.92l-4.97,5.4c-.15.16-.28.34-.43.51-7.49-7.31-20.52-20.14-31.24-31.52v-.47h-.44c-4.83-5.15-9.16-9.97-12.25-13.82,9.17-14.31,9.12-40.47,9.09-56.17v-.86c4.55,7.87,10.42,14.63,16.09,20.07ZM321.6,735.83h-22.89c-8.62,0-16.89-1.53-24.55-4.32-1.89-.82-3.67-1.54-5.33-2.21-24.77-11.37-42.03-36.39-42.03-65.38v-5.53s0-58.25,0-58.25c2.29.23,4.57.52,6.83.86v64.57c0,28.51,22.44,51.87,50.58,53.36l1,.03c.62.02,1.23.05,1.86.05h22.81c10.21,0,19.79-5,25.63-13.38l8.39-15.87c2.27,5.93,4.13,12.01,5.57,18.22l-27.85,27.85ZM333.23,735.83l18.12-18.12c.95,5.96,1.52,12.01,1.7,18.12h-19.82Z" fill="#ffffff"/>
  </g>
</svg>